<?xml version="1.0" ?><!DOCTYPE svg  PUBLIC '-//W3C//DTD SVG 1.1//EN'  'http://www.w3.org/Graphics/SVG/1.1/DTD/svg11.dtd'><svg enable-background="new 0 0 800 800" height="800px" id="Layer_1" version="1.1" viewBox="0 0 800 800" width="800px" xml:space="preserve" xmlns="http://www.w3.org/2000/svg" xmlns:xlink="http://www.w3.org/1999/xlink"><g><path d="M211.085,453.925c-0.127,1.841-0.237,3.682-0.237,5.552c0,34.848,10.107,67.305,27.315,94.902   c11.559,18.55,26.352,34.809,43.652,48.052c30.33,23.22,68.106,37.182,109.167,37.182c2.829,0,5.615-0.183,8.402-0.381l0.616-0.042   l0.617,0.042c2.778,0.198,5.564,0.381,8.401,0.381c33.622,0,65.007-9.428,91.976-25.534c18.483-11.039,34.88-25.187,48.314-41.885   c24.874-30.89,39.844-70.067,39.844-112.717c0-1.87-0.117-3.711-0.235-5.552l-0.103-1.565   c2.053-31.427-3.546-69.507-16.633-113.219c-35.623-119.012-36.477-145.334-36.459-147.897c0.844-7.701-4.315-14.912-12.05-16.474   c-8.173-1.638-16.152,3.639-17.824,11.813c-0.126,0.633-11.491,56.533-21.319,109.475c-0.043-0.017-0.076-0.034-0.109-0.051   c-1.917-24.351-6.992-50.627-15.131-78.271c-30.035-102.078-37.709-149.835-39.567-169.698c0.844-11.382-0.093-19.032-0.21-19.897   c-0.938-7.076-6.688-12.535-13.798-13.1c-0.515-0.038-1.03-0.067-1.528-0.042c-4.854-0.047-9.499,2.031-12.53,6.134   c-2.229,3.014-23.144,34.142-70.942,196.604c-8.14,27.644-13.223,53.92-15.131,78.271c-0.042,0.017-0.076,0.034-0.109,0.051   c-9.837-52.941-21.202-108.842-21.329-109.475c-1.664-8.178-9.659-13.48-17.816-11.813c-7.742,1.562-12.901,8.772-12.048,16.474   c0.017,2.563-0.844,28.885-36.459,147.897c-13.087,43.708-18.686,81.792-16.642,113.219L211.085,453.925z M394.758,603.917   c-32.458,0-58.86-26.398-58.86-58.853c0-32.452,26.403-58.854,58.86-58.854c32.449,0,58.852,26.402,58.852,58.854   C453.61,577.519,427.207,603.917,394.758,603.917z M520.754,559.014c-14.912,16.723-33.412,30.16-54.403,38.887   c10.96-14.805,17.521-33.044,17.521-52.836c0-49.141-39.972-89.116-89.113-89.116c-49.142,0-89.122,39.976-89.122,89.116   c0,16.541,4.61,31.989,12.497,45.279c-19.986-11.175-37.143-26.778-50.171-45.493c0.118-69.824,56.943-126.59,126.797-126.59   c69.921,0,126.805,56.884,126.805,126.804C521.563,549.785,521.26,554.43,520.754,559.014z M256.807,347.82   c9.077-30.321,16.634-57.142,22.553-79.872c3.395,17.668,6.924,36.455,10.082,53.979c0.887,4.931,4.163,9.103,8.731,11.141   c4.584,2.035,9.871,1.685,14.126-0.958c7.583-4.695,15.46-8.68,23.396-11.838c5.531-2.2,9.254-7.43,9.524-13.375   c1.106-24.542,5.996-51.662,14.523-80.619c19.032-64.678,33.563-107.744,44.102-136.055c0.6,0.198,1.207,0.363,1.84,0.489   c5.775,29.772,16.179,73.032,34.576,135.565c8.529,28.957,13.409,56.078,14.523,80.619c0.262,5.944,3.994,11.175,9.517,13.375   c7.945,3.158,15.813,7.143,23.396,11.838c4.265,2.643,9.559,2.993,14.126,0.958c4.576-2.039,7.844-6.21,8.73-11.141   c3.158-17.525,6.696-36.312,10.09-53.979c5.911,22.73,13.476,49.551,22.553,79.872c12.168,40.656,17.344,75.447,15.368,103.404   c-0.042,0.574-0.051,1.153-0.026,1.727l0.187,3.027c0.075,1.16,0.169,2.317,0.169,3.499c0,19.078-3.724,37.271-10.251,54.069   c-14.641-71.555-78.077-125.547-153.883-125.547c-69.373,0-128.283,45.257-149.021,107.761   c-2.914-11.641-4.627-23.753-4.627-36.283c0-1.182,0.085-2.339,0.169-3.499l0.177-3.027c0.026-0.573,0.017-1.152-0.025-1.727   C239.464,423.267,244.631,388.476,256.807,347.82z" fill="#4D4D4D"/><path d="M601.27,755.407L451.913,709.9l149.356-45.507c7.998-2.431,12.497-10.888,10.066-18.884   c-2.434-7.992-10.867-12.505-18.889-10.061l-192.446,58.636l-192.454-58.636c-8.004-2.423-16.448,2.068-18.879,10.061   c-2.44,7.996,2.068,16.453,10.056,18.884L348.09,709.9l-149.366,45.507c-7.988,2.431-12.497,10.887-10.056,18.884   c1.984,6.522,7.979,10.723,14.463,10.723c1.461,0,2.947-0.215,4.416-0.662l192.454-58.637l192.446,58.637   c1.478,0.447,2.955,0.662,4.416,0.662c6.484,0,12.488-4.2,14.473-10.723C613.767,766.294,609.268,757.838,601.27,755.407z" fill="#4D4D4D"/></g></svg>