<?xml version="1.0" encoding="utf-8"?>
<!-- Generator: Adobe Illustrator 26.4.1, SVG Export Plug-In . SVG Version: 6.00 Build 0)  -->
<svg version="1.1" id="Layer_1" xmlns="http://www.w3.org/2000/svg" xmlns:xlink="http://www.w3.org/1999/xlink" x="0px" y="0px"
	 viewBox="0 0 657.4 373.5" style="enable-background:new 0 0 657.4 373.5;" xml:space="preserve">
<style type="text/css">
	.st0{fill:#FDD304;}
	.st1{fill:#F1453A;}
	.st2{fill:#8B56E0;}
	.st3{fill:#FCFAE0;}
	.st4{fill:#F7D519;}
	.st5{fill:#FBF8EA;}
	.st6{fill:#F9F3B3;}
	.st7{fill:#8B64CE;}
	.st8{fill:#CB9B3F;}
	.st9{fill:#894CEF;}
	.st10{fill:#FEFDFD;}
	.st11{fill:#FAD40C;}
</style>
<path class="st0" d="M452,157.8c0.1,0.4,0.1,0.7,0.2,1.1c-0.1,0.5-0.5,1-0.4,1.4c4.1,11.4,3.5,23.5,5.4,35.3
	c1.3,7.6-1.2,15-2.4,22.4c-0.9,5.8-3,11.6-4.6,17.3c-2.2,7.7-7.1,11.2-13,14.6c-4.5-0.6-6.3,2.7-8.2,5.8
	c-12.2,6.8-24.7,12.6-38.1,16.7c-9.4,2.9-18.9,6-28.5,6.9c-13.6,1.3-27.5,1.9-41.2-1c-16.8-3.5-33-8.8-48.7-15.6
	c-6-2.6-11.7-6-18.3-7c-0.9-3.8-4.4-3.4-7-4.4c-7.4-2.9-14.5-6.4-22.6-7.7c-4.2-0.7-8.6-2.6-9.2-7.6c-0.6-4.7-2.2-9.2-3.1-13.9
	c-0.9-4.5-0.9-9.1-2.1-13.5c-2.4-8.8-1.5-17.8-0.5-26.6c0.8-7.5,2.9-14.8,3.4-22.3c3-6.8,6-13.6,8.2-20.8c1.1-0.2,3-0.3,3-0.5
	c0.3-5.2,5.1-8.1,6.5-12.7c3.4-3.6,6.8-7.2,10-10.9c0.5-0.6,0.3-1.9,0.4-2.9c5.5-4.6,10.3-10,16.1-14.3c4-3,9.3-4.9,11.8-9.8l0-0.1
	c2.5,0.2,4.5-1.1,6.5-2.3c13.5-8.3,28.7-11.8,44.1-13.6c21.1-2.3,41.8,0,61.5,8.7c-0.2,1.6,0,2.8,2,3.3c6.5,1.4,10.1,8.7,17.4,8.6
	c0.2,0,0.4,0.9,0.5,1.3c-1.1,0.3-2.6-0.6-3.4,0.9c-0.1,0.2,0.4,0.8,0.7,0.9c1.5,0.4,2.5-0.1,2.6-1.8c3.8,1.6,5.7,5.5,9,7.7
	c9.1,6.1,16.4,14,22.7,23c2.5,3.6,4.2,7.5,6.8,11c1.9,2.5,2.4,5.7,5,8.2c1.4,1.4,1.4,5.7,2.7,8.2C448.4,154,448,157.8,452,157.8z"/>
<path class="st1" d="M5.2,303.8c5.6-10.2,12.4-19.5,20.9-27.6c13.1-12.4,28.5-20.7,45.6-26.3c1.9-0.6,3.7-1.4,5.5-2.1
	c12.6-2.4,25.1-4.8,37.9-5.6c34.4-2.2,67.6,2.6,99.8,15c21.3,8.2,41.5,18.8,62.9,26.5c40.1,14.5,80.6,17.6,122,5.9
	c15.6-4.4,30.6-10,44.9-17.7c0.4,0,0.6-0.1,0.7-0.5c1.8,0,3.1-1.1,4.5-1.8c11.1-5.4,21.4-12.3,32.1-18.4c0.5,0.8,0.9,1.6,1.4,2.3
	c-5.8,8-13.2,14.4-20.4,20.9c-24,21.6-50.5,39.2-81,50.6c-35.3,13.2-71.3,15.1-108,7.6c-23.4-4.8-45.8-12.6-68.3-20.4
	c-24-8.4-48-16.7-73.2-21.2c-42.7-7.7-83-0.3-121.7,18.5c-2.4,1.2-5.3,4.2-7.4,2.3c-1.8-1.6,1.3-4.7,1.8-7.2
	C5.2,304.5,5.2,304.1,5.2,303.8z"/>
<path class="st2" d="M263.3,335.7c7.3,1.3,14.6,2.6,21.9,3.9c0,0.7,0,1.4-0.1,2.1c-7-0.6-13.8-3.4-21-2c-1.5,0.3-3.7-1.6-4.3,1.5
	c-0.6,2.9,1.5,3.5,3.4,4.5c10.6,5.3,21.2,10.6,32.5,14.1c3.5,1.1,6.1,4.5,10.4,3.9c3.1-0.5,6,0.5,9,1.9c5.8,2.7,11.9,4.1,18.4,4.1
	c5,0,10.3-1.3,14.8,0.6c5.1,2.2,10.7,2.5,15,0.9c8.5-3.2,17.1-1.2,25.7-3c9-1.8,17.2-5.5,25.9-7.9c10.2-2.7,20-8,29.3-13.2
	c9.1-5.1,17.4-11.5,25.9-17.5c3.2-2.3,6.2-4.8,9-7.6c4.6-4.4,10.1-8,14.6-12.4c7.3-7,15.5-12.9,22.4-20.2
	c5.1-5.5,12.2-8.7,16.7-14.7c3.3-4.4,6.7-8.3,11.4-11.3c5.8-3.8,10.9-8.8,16.8-12.4c3.7-2.2,7.6-4.5,11.2-6.6
	c5.2-3.1,9.8-7.2,15.8-9.1c0.9-0.3,1.4-1.8,2-2.7l0,0c6-0.1,11-3.1,16.3-5.1c4.5-1.7,8.8-4,13.7-3.9c2.2,0.1,4.2-0.1,6-1.7
	c2-1.8,4.5-2.2,7.3-2.4c4.5-0.2,9.4,0.8,13.2-3.1c-9.5-6.1-20.6-4.7-30.8-6.4c-8.7-1.5-17.7-0.1-26.6,1.5
	c-4.9,0.9-10.8,1.1-14.7,2.9c-7.5,3.7-15.8,4.9-23.1,9c-2.1,1.2-2.3,4.3-4.5,4c-4.6-0.6-7.3,2.7-10.7,4.5c-5.4,2.9-11,5.8-15.8,9.6
	c-6.2,5-13.5,8.4-19.5,13.9c-1.4,1.2-1.8,3.8-3,3.8c-6.1,0.2-8.4,5.5-12.1,8.7c-1.6,1.3-3,1.9-4.9,1.7c6-6.9,13.7-11.7,20.3-17.9
	c16.5-12.4,33.8-23.6,52.9-31.7c26.6-11.3,54-16.8,82.7-10c6.9,1.6,13.6,4,20.6,8.7c-4.3,0.6-7.5,1-10.8,1.5
	c-31.5,4.1-59.9,16-85.7,34.2c-18.8,13.3-34.9,29.7-51.9,45.1c-23,20.9-46.1,42-74.6,55.4c-54.2,25.6-108.5,24.1-162.2-2.1
	c-9.4-4.6-18.4-10.1-26.8-16.3c-0.6-0.5-1.5-0.6-2.2-1c0-0.4-0.1-0.8-0.1-1.2c0.4-4.2,3.6-3.2,5.3-2.1
	C253.1,335.5,258,336.2,263.3,335.7z"/>
<path class="st3" d="M381.2,80.6c-19.7-8.7-40.4-11.1-61.5-8.7c-15.4,1.7-30.6,5.2-44.1,13.6c-1.9,1.2-4,2.5-6.5,2.3
	c-0.1-1.3,1.1-1.8,1.8-2.7c0.6-0.8,2.3-1.4,1.4-2.6c-0.5-0.6-2.1-0.4-3.2-0.6l0,0c1-3.5,3.9-1.7,5.9-1.9c2.4-0.2,4.1-0.2,4.3-3.4
	c0.2-2.7,2.3-4.8,5-4.6c4.5,0.4,8.1-2.2,13.3-2.7c-4.4-2.6-8.4-0.5-11.7-1.9c0.7-6.4,4.6-12.2,2.6-19.3c-2.3,1.2-0.6,4-2.9,5.5
	c-0.2-3.5-0.6-5.3,2.2-8.5c4.6-5.4,6-7.2,10.4,0c1.4,2.3,0.8,5.1,2.9,6.7l-0.1,0.1c-1.2-0.4-2.4-0.8-3.6-1.1c-0.1-0.3-0.2-0.7-0.3-1
	c0-0.8-0.1-1.6-1-1.9c-1.7-0.5-1.6-3.9-3.8-2.9c-1.5,0.6-1.1,2.9-1.1,4.6c-0.1,4.3,0,8.6-0.4,12.8c-0.4,3.8,1.6,3.9,4.2,3
	c2-0.7,3.9-1.8,6.1-1.3c0.3,2.1,2,1.8,3.4,1.8c1.7,0,2.8,0.2,3.7,2.2c1.2,2.8,3.4,2.7,4.9-0.1c0.9-1.8,2.3-2.2,4-2.1l0,0
	c0,2-0.1,5.1,2.8,3.6c5.2-2.6,10.4-1.3,15.6-1.6c9.3-0.4,18.4,1.2,27.4,3.6c0.4,0.1,1,0.1,1.4-0.1c3.7-1.9,7.4-2.2,10.8-0.4
	c1.3,0.7,2.5,0.9,3.8,0.8c4.5-0.2,7.5,1,8.4,6.2c0.5,2.6,4.2,3.1,6.2,5c2.7,2.5,4.3-2.2,7.1-2.1c-5.8-0.2-8.1-5.2-11.9-8.1
	c-2.4-1.8-2.3-4.1,0.2-5.7c2.4-1.6,4.8-3.5,8-3.4c0.2,1.9-1.7,2.3-2.6,3.2c-4,3.8-3.9,4.6,1,7.4c3,1.7,5.8,3.6,8.8,5.3
	c2.8,1.6,5.2,4,8.8,3.8c-0.6,3.2-3.8,2.9-5.8,4.1c-2.6,1.6-2.8,2.8-0.1,4c1.3,0.5,2.2,1.3,3.2,2.2c3.9,3.6,8.3,3.5,12.3-0.4
	c1.9-1.8,3.4-4.1,6.5-3.8c0.1,0.1,0.3,0.3,0.4,0.4c-4.7,4.5-4.7,4.5,0,10c0.4,0.5,0.8,1,1.3,1.5c3.2,3.1,4.5,2.7,6.5-1.2
	c1.8-3.4,2.7-7.3,5.6-10.1c0.6,0.9-0.1,2.4,1.3,2.9c0.2,0.1,0.8-0.5,0.9-0.8c0.4-1.6-0.4-2.4-2-2.6c-0.5-2,2-3.3,1.3-5.4
	c-2.6-0.5-4.4,2.1-6.9,1.7c-0.1-0.1-0.2-0.3-0.4-0.4c1.5-4.4,6.1-3.9,9.2-5.7c1.7-1,2.9,0.5,3,2.7c0.1,3.9-0.1,9.4-2.4,10.8
	c-4.6,2.7-4.9,7-7.1,10.6c-3.6,5.6-6.8,5.2-10.5-0.7c-0.8-1.2-1.7-1.4-2.9-1.5c-1.1-0.1-2.6,0.1-2.9-1.4c-0.5-2.8-2.4-2.9-4.5-2.5
	c-2.4,0.4-1.5,2.6-1.8,4.1c-2-0.2-2.9-2-4.3-3C402.9,91.8,393.2,84.2,381.2,80.6z"/>
<path class="st4" d="M487,111.8c-9.1,8.6-18.3,17.2-27.4,25.8c-1.7,1.6-2.6,1.4-4.2-0.6c-3.6-4.5-5.2-10.1-9.1-14.5
	c-2.9-3.3-0.8-6.9,3.2-8.4c3.5-1.3,7-1.9,10.6-2.2c3.8,0.4,7.1-1.5,10.5-2.6c5-1.6,10.8-1.7,14.6-6c1.3-0.1,2.6-0.2,3.9-0.3
	c1.3,0.2,2.8-1.8,3.8,0.3c0.8,1.7-0.7,2.6-1.7,3.6C489.7,108.2,487.5,109.3,487,111.8z"/>
<path class="st5" d="M221.2,139c-2.2,7.1-5.2,14-8.2,20.8c-2.9,3.2-3.6,7.1-4,11.2c-0.1,1.8,1,4.2-1.9,4.9c-1.4-4.7-0.8-9.9-4-14.1
	c0.1-1-0.2-2.1,0.2-2.9c2.4-4.8,1.4-6.7-4.1-7.1c-1.1-0.1-2.3,0.1-3.1-0.9c0.1-4.8,2.6-6.3,7-4.5c2.2,0.9,1.8-2.1,4.1-1.8
	c0,2.3,0.1,4.7,0,7.1c-0.1,1.9,0.6,3.6,2.5,3.6c2,0.1,2.9-1.7,3.5-3.5c0.8-2.6-2.1-4.1-1.9-6.4c0.3-3.5-2.5-2.8-4.3-3.8
	c-4.7-2.7-8.5-6.8-11.5-11.3c-0.8-1.2-2.2-2.5-2.3-4.2c0.6,0,1.2-0.1,1.8-0.1c3.8,3.4,7.7,6.7,11.3,10.2c2.2,2.1,3.3,1.8,4.9-0.6
	c3.1-4.8,5.4-10,9.2-14.4c1.8-2.1,0.8-6-2.7-6.5c-4.3-0.6-8.1-2.8-12.5-3c0-2.8-4.2-0.9-4.1-3.7c1.3-0.2,2.8,0.3,3.8-0.8
	c3.6-4.2,5.5-0.9,7.1,1.8c2.2,3.7,6.8,4.3,9.3,0.8c1.8-2.6,4.3-1.3,6.4-0.9c2,0.4,0.8,1.9,0.5,3.4c-0.5,3.5,2.2,5.3,5.4,6.2
	c0,2.3-2.4,3.3-2.7,5.5C224.4,126.8,223.4,133.3,221.2,139z"/>
<path class="st4" d="M489.1,203.8c-4.9,2.4-10.5,1.9-15.6,3.7c-2.8,1.1-4.5,0-4.6-3.6c-0.1-5.7,0.8-11.4-0.9-17.2
	c-0.9-2.9,1.9-5.2,5-4.2c11.9,3.8,24.4,5.1,36.2,9.3c2.4,2.8,6.6,0.9,10,4.1c-8.7,2.1-16.6,4-24.6,5.8
	C492.6,202.2,490.5,202.1,489.1,203.8z"/>
<path class="st4" d="M247.4,64.3c-2.8-6.3-3.7-13.1-5.8-19.6c-1-3.3-2.6-6.4-2.8-9.9c-0.1-0.7-1-1.5,0-2.2c1.1-0.7,1.8,0.1,2.5,0.8
	c3.2,3.5,6.5,7,9.8,10.4c4.6,7.9,11.1,14.2,18.1,19.9l0.1,0c-0.1,1.4,1.1,1.8,2,2.6c4.9,4.3,4.7,5.2-0.8,8.4
	c-4.8,2.7-9.5,5.4-14.3,8.1c-1-0.1-2-0.1-2.9-0.1C251.9,76.3,249.8,70.2,247.4,64.3z"/>
<path class="st3" d="M317.1,65.8c2-4,0.2-8.3,1.6-12.7c1.9-5.9,2.6-12.4,4.9-18.1c1.8-4.5,1-8.7,1.4-13c0.3-2.5-0.1-5,2.8-6.3
	c1.8-0.8,1.1-2.6,1.2-4c0.2-1.6-0.5-3.5,2-3.9c0,1.4,0,2.7,0.1,4.1c-1.7,7.9-3.3,15.9-5.1,23.8c-1.4,6.3-3.2,12.5-4.6,18.8
	c-0.7,3.2-0.4,5.7,3.9,5.4c3.6-0.2,7.3-0.1,11-0.1c9.8,0,9.8,0,7.5-9.6c-3.1-12.7-6.6-25.4-8.8-38.3c0-1.4,0.1-2.8,0.1-4.1
	c3.2,0.9,1.8,3.5,1.9,5.4c0.1,2.6,0.2,4.9,3.9,6.3c-0.2-5.6,1.5-10.8-1.1-16c-0.6-1.1-1-2.2,0-3.1c0.4-0.4,1.3-0.5,1.8-0.4
	c1.5,0.3,1.3,1.7,1.4,2.8c0.3,3.6-0.6,7.1,1.5,10.6c1.2,1.9-1.1,4.3-2,6.2c-2.5,5.6-2.4,10.8,0.5,15.9c2.8,5.1,1.7,11.1,3.9,16.4
	c0.6,1.4-0.4,3.5,2.1,3.8l0,0c0.9,3.3-2.4,4.7-3.5,7.1c1.7,1.3,3.3,1,4.8,0.5c0.4-0.2,1-1,1.1-0.9c7,3.4,7.6-1.2,8.5-6.3
	c0.3-1.8,2.7-2.7,4.9-2.5c0.1,0.4,0.2,0.8,0.2,1.1c-0.9,1.5-1.9,3-2.7,4.6c-0.5,1-1.6,2.4-0.1,3c3.7,1.5,7.6,2.9,11.7,3
	c2.3,0,1.8-2.3,1.8-3.9c-0.1-3-0.4-5.9-0.6-8.9c0-3,0-6,0.1-8.9c3.6,1.8,1,5.1,1.9,7.5c0.5,1.3-2,5.2,2.8,3.3
	c1.1-0.4,1.1,1.3,0.8,2.2c-1.9,6.6-1.9,6.6-0.3,10.8c-4.3-0.1-8.5,1.4-12.5-1.4c-1-0.7-2.9-0.3-4.4-0.3
	C348,65.8,332.6,65.8,317.1,65.8C317.1,65.8,317.1,65.8,317.1,65.8z"/>
<path class="st4" d="M412.8,83.6c-3.5,0.2-6-2.2-8.8-3.8c-3-1.7-5.8-3.6-8.8-5.3c-4.8-2.8-4.9-3.6-1-7.4c1-0.9,2.8-1.3,2.6-3.2h0.1
	c6-4.6,11.3-9.9,15.7-16.1c3-6.6,9.6-10,14.3-16.9c0.5,5.6-0.6,9.3-2,12.9c-0.4,0.7-1.1,1.3-1.3,2.1c-2.2,6.9-4.6,13.7-6.3,20.8
	C416.1,72.3,412.8,77.5,412.8,83.6L412.8,83.6z"/>
<path class="st4" d="M172.6,188c0.3,0.1,0.5,0,0.6-0.2c5.6-0.4,11.1-1.8,16.4-3.4c6.1-1.9,7.7-0.8,7.6,5.2c0,2.5,0,5,0,7.5
	c0.1,10.6,0.1,10.8-10.1,8.8c-9.8-1.9-19.7-3.9-29.3-6.7c-3.9-1.1-8.5-0.4-11.7-4c2.8-2,6.7-0.8,9.3-3.2c0.6-0.1,1.2-0.1,1.8-0.2
	C162.5,191.2,167.6,190.2,172.6,188z"/>
<path class="st5" d="M155.3,191.9c-2.6,2.5-6.5,1.2-9.3,3.2c3.2,3.6,7.8,2.9,11.7,4c9.6,2.7,19.5,4.7,29.3,6.7
	c10.2,2,10.2,1.8,10.1-8.8c0-2.5,0-5,0-7.5c0.1-5.9-1.5-7-7.6-5.2c-5.4,1.6-10.8,3-16.4,3.4c1.5-2.6,4.3-3.7,6.8-3.8
	c5.1-0.1,9.5-1.8,14-3.7c2.1-0.9,5.1-1.5,6.5,0.4c1.4,1.9,0.8,4.6-0.2,7.1c-2.3,6.2-1,12.7-0.7,19.1c0,0.3,1,0.6,1.6,0.9l0,0
	c0.1,3.1-1.6,5.3-4.4,5.8c-2.9,0.5-5.8-1-7.2-3.5c-1.1-2.1-2.5-2.1-4.4-2.3c-5.1-0.3-10.3,1.4-14.8-3.4c-1.6-1.7-5.8-1.3-8.5,0.3
	c-1.6,0.9-3.1,1.1-4.8,1.1l0,0c2.2-3.3,1.2-4.4-2.6-4.1c-2.8,0.3-5.5-0.2-8.1,1.6c-1.3,0.9-3.1,0.5-5.2-0.1c1.7-1.9,4.7-1.8,5.1-4.5
	c-0.1-0.1-0.2-0.4-0.4-0.6c-1.5-1-4.4,0.8-4.7-2.3c-0.2-2.7,2.6-2,3.9-3C148.3,190.7,151.9,192.1,155.3,191.9z"/>
<path class="st4" d="M381.2,80.6c12,3.6,21.7,11.1,31.5,18.4c1.4,1,2.4,2.8,4.3,3c13.6,11.9,23.5,26.5,31,42.8
	c1.9,4.1,2.6,8.7,3.9,13c-4,0-3.5-3.9-4.7-6c-1.3-2.5-1.3-6.8-2.7-8.2c-2.5-2.5-3.1-5.7-5-8.2c-2.6-3.4-4.4-7.4-6.8-11
	c-6.3-9-13.6-16.9-22.7-23c-3.3-2.2-5.1-6.1-9-7.7l0,0c-0.2-0.5-0.4-1.3-0.5-1.3c-7.3,0.1-10.9-7.2-17.4-8.6
	C381.2,83.5,381,82.2,381.2,80.6z"/>
<path class="st6" d="M207.2,175.9c2.9-0.8,1.7-3.1,1.9-4.9c0.4-4.1,1.1-8,4-11.2c-0.5,7.6-2.6,14.9-3.4,22.3
	c-0.9,8.8-1.9,17.8,0.5,26.6c1.2,4.4,1.2,9.1,2.1,13.5c0.9,4.6,2.5,9.1,3.1,13.9c0.6,5,5.1,6.9,9.2,7.6c8,1.3,15.1,4.8,22.6,7.7
	c2.6,1,6.1,0.6,7,4.4c-5.4,0.7-9.8-2.9-14.1-4.8c-6.8-3-13.8-4.9-20.7-6.7c-3.8-1-5.4-3.4-5.7-5.6c-0.9-6.8-4.1-13-4.5-19.9
	c-0.1-1.4-0.1-2.7-1.9-3c-0.1-6-0.1-11.9-0.2-17.9c0-5,0.1-10,0.1-15.1C207.1,180.5,207.1,178.2,207.2,175.9z"/>
<path class="st6" d="M441.1,251.8c-1.3,0-2.6,0-3.9,0c0.1-0.6,0.1-1.3,0.2-1.9c5.9-3.5,10.8-6.9,13-14.6c1.6-5.7,3.7-11.5,4.6-17.3
	c1.1-7.4,3.6-14.8,2.4-22.4c-2-11.7-1.3-23.9-5.4-35.3c-0.1-0.4,0.2-0.9,0.4-1.4c4.2,2,3.9,6.5,4.7,9.9c3.5,13.7,1.9,27.8,2.3,41.7
	c0.1,4.3-1.4,8.1-2.5,11.9c-1.9,6.8-2.7,13.9-5.7,20.3c-1.9,0.2-2,1.6-1.9,3.1l0,0c-1.3,0-2,0.6-2,1.9l0,0c-1.3,0-2,0.7-2,2l0,0
	C443.5,250,441.4,249.2,441.1,251.8L441.1,251.8z"/>
<path class="st4" d="M485.8,154.7c-2.6,4.6-7.8,5.8-11.4,8.7c-2.2,1.8-4.2,5.6-7.9,3.9c-3.5-1.5-2.5-5.4-3.3-8.3
	c-1.8-6.6-1.7-6.8,5-6.6C474.1,152.6,479.9,152.9,485.8,154.7z"/>
<path class="st6" d="M201.1,107.9c0,2.8,4.1,1,4.1,3.7c-5.8-1.1-11.4-3.1-17-4.7c-4.8-1.3-9.4-4-15.6-2.7c2.4,1.7,3.9,2.6,5.2,3.7
	c5.5,4.9,9.7,11.2,16.4,14.8c1.1,0.6,1,2,0.8,3.2c-0.6,0-1.2,0.1-1.8,0.1l-0.1-0.1c-0.2-2.7-2.3-1.8-3.8-2.1
	c-3.1-4.8-7.8-7.9-11.5-12c-2.8-3.1-7.8-3.2-9.4-7.7c-0.4-1.2-1.7-2.8-0.4-3.4c1.6-0.7,3.1-3,5.2-1.6c3.2,2.1,7.1,2.3,10.3,4.2
	c1.2,0.7,3,1.2,3.8,0.5c4.2-3.4,6.5-0.4,8.9,2.3C197.5,107.6,199.1,108,201.1,107.9z"/>
<path class="st5" d="M479.1,225.8c0.3,0,0.7-0.1,1,0c0.8,0.1,8.8,9.1,8.9,9.8c0.1,1.4-0.7,2.6-1.7,2.8c-3.6,0.9-6.4,4-11.1,2
	c-3.5-1.5-8.3-2.3-12,1.5c-1.4,1.4-3.1,0.8-2.9-1.3c0.2-3.8-1.5-7.9,1.4-11.5c0.6-0.7,0.9-2.2-0.3-2.5c-1.3-0.3-4.5,1.7-2.8-1.8
	c1.2-2.5,2.1-6.2,7-5.5c4,0.6,5,4.7,8.5,5.4c0.8,0.2,1.4,0.7,2.1,1.1c-0.1,1.4-0.9,1.9-2.1,2c-2-1-4.1-2-6-3.1
	c-1.3-0.8-3.1-1.1-3.2,0.4c-0.3,3.7-2.7,6.8-2.5,10.6c0.1,1.4,0,2.5,2.1,2.4c5.6-0.4,11.3-0.4,16.9-0.7c1,0,2.1,0,2.4-1.3
	c0.3-1.3-0.5-1.8-1.5-2.2c-1-0.4-1.8-0.8-2.2-1.9C480.8,229.8,478.2,228.4,479.1,225.8z"/>
<path class="st5" d="M239.2,109.8c-2.9-0.6-5.6-1.7-8.5-2.4c-3.8-1-4.7-5.2-5.4-8.6c-0.5-2.3-1.2-3.3-3.5-3c-3.2,0.5-4-1.8-4.5-4.1
	c-0.3-1.6-0.2-3.3-0.2-4.9c0-2.4-0.6-5.3,2.1-6.7c2.7-1.4,4.2,1,5.8,2.6c0.8,0.8,1.7,1.1,2.7,1.1c3.1-0.3,3.7,1.5,3.4,4
	c-2.4-1-4.7-2.1-7.1-3.1c-0.8-0.3-1.6-0.8-2.2,0.1c-0.5,0.7-0.6,1.8,0.1,2.3c2.8,2.4,3.3,6,5.2,8.9c0.1,1.5-0.6,3.4,1.8,3.9l0.1,0.2
	c0.2,1.5-0.1,3.4,2.1,3.6c1.7,0.1,3.7,0.7,4.2-1.9l0.1,0c0.6,0,1.2-0.1,1.9-0.1l0.1,0.1c-0.8,5.4,3.3,3.6,5.9,3.9
	C242.6,107.9,241.2,109.2,239.2,109.8z"/>
<path class="st4" d="M227.1,96c-1.9-2.9-2.4-6.5-5.2-8.9c-0.6-0.6-0.6-1.6-0.1-2.3c0.6-0.8,1.5-0.4,2.2-0.1c2.4,1,4.7,2.1,7.1,3.1
	c1.8,1,3.4,2.4,5.7,2.2c0.5,2.4,2.4,2.1,4.1,2.1c0,0-0.1-0.1-0.1-0.1c2,4.1-1.7,5.6-3.7,7.8c-1.2,0.1-2,0.7-1.9,2.1l-0.1,0
	c-2.4,0.6-4.2-1.1-6.3-1.7l-0.1-0.2C228.8,98.4,229.6,96.5,227.1,96z"/>
<path class="st6" d="M196.1,150.9c0.8,1.1,2,0.9,3.1,0.9c5.6,0.4,6.6,2.3,4.1,7.1c-0.4,0.8-0.1,1.9-0.2,2.9
	c-0.2,6.4-3.1,9.6-6.9,7.5c-2.1-1.2-4.6-2.7-4.7-5.8c1.8-0.2,2.6,1.3,3.8,2.1c4.1,2.6,5.3,2.1,5.7-2.9c0.1-1-0.1-2-0.1-2.9
	c1.9-5.2,1.5-5.8-3.8-5.8c-3.9,0-7.9,0-11.8,0c-1.2,0-2.5,0.3-2.7,1.6c-0.3,1.8,1.1,2.1,2.6,2.1l0.1,0.1c0.3,2.5,2.3,1.7,3.8,2.1
	c0.1,1.3,0.8,2,2.2,2c0,0.6,0.1,1.1,0.1,1.7c-4.2,3-7,2.6-8.7-2.8c-0.6-1.8-2.8-3.2-4.3-4.7c-0.9-0.9-1.4-1.8-0.9-3.1
	c0.5-1.1,1.6-0.9,2.6-1c3-0.1,5.9-0.1,8.9-0.1c1.1,0,2.2,0.2,3-0.9C193.5,150.9,194.8,150.9,196.1,150.9z"/>
<path class="st4" d="M297.2,49.7c0.1,0.3,0.2,0.7,0.3,1c-0.7,3,1.8,3.3,3.5,4.2c0,0.3,0,0.6,0.2,0.8c-0.1,1.3,0.3,2.2,1.8,2.2l0,0
	c-0.1,1.5,0.8,2.4,1.9,3.2c-0.1,0.2-0.1,0.5,0,0.7c-0.1,0.3-0.1,0.5,0,0.8l0,0c-0.4,0.3-0.7,0.5-1.1,0.8c-0.9,0.2-1.8,0.3-2.7,0.5
	c-2.2-0.5-4.1,0.7-6.1,1.3c-2.5,0.8-4.5,0.8-4.2-3c0.4-4.3,0.3-8.6,0.4-12.8c0-1.6-0.3-3.9,1.1-4.6c2.2-1,2.1,2.4,3.8,2.9
	C296.2,48.6,296.4,49.3,297.2,49.7z"/>
<path class="st3" d="M412.9,83.7c-0.1-6.1,3.2-11.4,4.6-17.2c1.6-7,4.1-13.9,6.3-20.8c0.2-0.8,0.9-1.4,1.3-2.1
	c0.3,5.8,0.7,11.5-3.2,16.5c-0.9,1.1-1.2,3,0.5,3.3c3.5,0.7,2.7,3.1,2.8,5.4l0,0c-4-1.6-6.4-1.4-6.2,4.1c0.1,3-2.1,5.9-2.1,9.3
	C416.8,84.5,414.4,83.7,412.9,83.7z"/>
<path class="st6" d="M489.1,203.8c1.5-1.7,3.5-1.6,5.4-2c8-1.8,15.9-3.8,24.6-5.8c-3.3-3.2-7.6-1.3-10-4.1c5-0.9,9.6,1,14.3,2.1
	c0.9,0.2,1.4,0.8,1.5,1.7c0,1.2-0.6,1.6-1.7,2.1C512.2,201.7,500.9,204.2,489.1,203.8z"/>
<path class="st3" d="M256.1,82.8c4.8-2.7,9.5-5.4,14.3-8.1c5.6-3.2,5.7-4.1,0.8-8.4c-0.9-0.8-2-1.2-2-2.6c1.9,0.3,4.1-0.6,5.7,1.1
	c1.7,1.9,5.3,3.4,3.9,6.2c-1.5,3.1-4.6,5.3-8,6.7c-0.7,0.3-1.7,0-2.4,0.3c-1.2,0.5-2.7,1.4-2.6,2.7c0.2,1.8,2.1,0.8,3.3,1.1l0,0
	c-0.3,2.4-2.2,2.1-3.8,1.9c-2.2-0.2-4.2,0.7-6.2,1C258.1,84.1,257.1,83.5,256.1,82.8z"/>
<path class="st6" d="M239.2,109.8c2-0.6,3.4-1.9,4-4l0,0c1.3,0,2-0.7,2-2l0,0c1.3-0.1,2-0.7,2-2c0.7-0.7,1.4-1.3,2-1.9
	c2.1-0.6,3.4-1.9,4.1-4c0.6,0,1.2-0.1,1.9-0.1c1.3,0,2-0.6,2-2l0,0c1.3,0,2-0.7,2.1-1.9c0.6-0.1,1.2-0.1,1.9-0.2
	c2-0.9,4.1-1.7,5.1-3.9c1,0,2,0,3-0.1c-2.5,4.9-7.8,6.8-11.8,9.8c-5.9,4.3-10.6,9.7-16.1,14.3c-0.6,0-1.3,0-1.9,0
	C239.2,111.3,239.2,110.6,239.2,109.8z"/>
<path class="st6" d="M485.2,103.2c-3.9,4.3-9.7,4.4-14.6,6c-3.3,1.1-6.7,3-10.5,2.6c0.5-2.6,1.7-4.3,4.7-3.9
	c0.8,0.1,2.1,0.3,2.4-0.2c4.2-6.4,11.3-3.5,16.9-5.3C484.3,102.3,484.8,102.9,485.2,103.2z"/>
<path class="st6" d="M269.2,63.8c-7.1-5.7-13.5-12-18.1-19.9c2.9-1.7,4.9-1.6,6.1,2.2c1.5,5,5.4,8.4,9,11.9
	C267.9,59.5,269.7,61,269.2,63.8z"/>
<path class="st5" d="M181.9,178.3c-5.9,3.5-10.6,6.4-16.4,5.5c-2.1-0.4-3.2,1.4-4.9,1.9c-1.2,0.3-2.8,0.5-3.2-1.3
	c-0.3-1,0.1-2.4,1.2-2.3c6.6,0.5,12.1-3.1,18.3-4.2C178,177.6,179.3,178.1,181.9,178.3z"/>
<path class="st7" d="M263.3,335.7c-5.3,0.5-10.2-0.2-14.8-3.3c-1.7-1.1-5-2.2-5.3,2.1c-2.4-0.6-3.3-3.5-5.9-3.8
	c-0.4-0.3-0.7-0.6-1.1-0.9c-0.2-1.6-2.6-1.6-2.4-4.1C243.5,329.8,253.5,332.3,263.3,335.7z"/>
<path class="st3" d="M425.1,68.8c3.3,0.7,4.9,1.6,2.7,5.7c-1.5,2.9-5,6.4-1,10.4c-1.7,1.3-3.4,1.3-4.7,0.4c-1.6-1.1,0.3-2.8,0.1-3.8
	C421.5,76.8,424.3,73.1,425.1,68.8C425.1,68.8,425.1,68.8,425.1,68.8z"/>
<path class="st6" d="M487,111.8c0.5-2.4,2.7-3.5,4.2-5.1c1-1,2.5-1.9,1.7-3.6c-1-2-2.5-0.1-3.8-0.3c-0.5-3.5,3-3.1,4.6-4
	c0.9-0.5,3.1,1,4.7,1.8c0.4,0.2,0.5,1.2,0.4,1.8C498.3,105,490.1,111.4,487,111.8z"/>
<path class="st5" d="M207.1,182.8c0,5-0.1,10-0.1,15.1c-0.7,0-1.5-0.3-2,0c-4.4,3-4.4-0.3-3.8-2.9
	C202.3,190.6,204.2,186.4,207.1,182.8z"/>
<path class="st5" d="M253.2,95.9c-0.6,2.1-2,3.4-4.1,4c-1.1-3.4-3.5-2.4-4.7-0.7c-1.9,2.9-4.6,2.6-7.3,2.7l-0.1-0.1c0-0.7,0-1.3,0-2
	c2.1-2.2,5.7-3.7,3.7-7.8c0.9,0.1,2.6-0.1,2.8,0.3C245.6,97,249.7,95.6,253.2,95.9z"/>
<path class="st6" d="M412.8,47.7c-4.4,6.2-9.7,11.5-15.7,16.1c0-1.5,0-2.8,1.3-4.1c3.7-3.5,7.2-7.2,10.8-10.9
	C410.2,47.7,411.4,47.7,412.8,47.7z"/>
<path class="st3" d="M247.4,64.3c2.4,6,4.5,12.1,5.8,18.4c0,0.4,0,0.8-0.1,1.2c-5.3-2-4.4-7.4-5.8-11.3
	C246.5,70.1,247.3,67,247.4,64.3z"/>
<path class="st6" d="M365.1,54.9c-0.1-0.4-0.2-0.8-0.2-1.1c0.3-5.1,5.4-7.2,7.2-11.5c0.5-1.1,2.8-0.5,3.2,1.5c0,3,0,6-0.1,8.9
	c-1.8-2.4,0.1-5.5-1.6-8c-2,0.7-2.7,2.6-3.4,4C368.8,51.2,368.2,54,365.1,54.9z"/>
<path class="st4" d="M239.2,112c0.6,0,1.3,0,1.9,0c-0.1,1,0.2,2.3-0.4,2.9c-3.2,3.7-6.6,7.3-10,10.9c0-0.7,0-1.4-0.1-2
	c0.3-2.1,2.7-3.2,2.7-5.5l-0.1-0.1c2.1-0.7,3.6-2,3.8-4.3C237.9,113.2,238.6,112.6,239.2,112z"/>
<path class="st5" d="M172.6,188c-4.9,2.2-10.1,3.2-15.4,3.7c-0.2-2.6,0.5-4.1,3.5-3.9C164.6,188,168.6,187.9,172.6,188z"/>
<path class="st3" d="M324,15.2c-1.4-4.6-0.9-9.3-0.7-13.9c0-1.2,1.2-1.4,2.3-1.2c1,0.2,1.7,1.2,1.3,1.7C323.8,5.8,326,10.9,324,15.2
	z"/>
<path class="st6" d="M187.2,237.7c-2,0.1-4.1,0.1-6.1,0.1c-1.4-0.4-4,0.5-3.7-2c0.3-3,2.9-3.9,5.7-4.1c0.7,0.1,1.5,0.1,2.2,0.2
	c0.1,1.9-2.8,1.9-2.5,4.1C184,237.2,186.1,236.3,187.2,237.7z"/>
<path class="st3" d="M304.9,61.9c-0.1-0.2-0.1-0.5,0-0.7c0.3-1.6,0.6-3.2-1.9-3.2l0,0c0.2-1.3-0.4-2.1-1.8-2.2
	c-0.2-0.2-0.3-0.5-0.2-0.8c0-1,0-2.1,0-3.1l0.1-0.1c1.3,0,2.6,0,4,0l0,0c-0.2,1.9,1,3.3,1.5,4.9c0.7,2.3,2.1,5.4-1.4,7.1
	c-0.1-0.4-0.1-0.8-0.2-1.2l0,0c0.2-0.1,0.4-0.3,0.6-0.4C305.3,62.2,305.1,62,304.9,61.9z"/>
<path class="st5" d="M157.1,205.8c-0.1,0.9-0.5,1.8-1.4,1.8c-4.6,0.1-9.3,0-13.9,0c0-0.6,0-1.2,0-1.9
	C146.9,205.8,152,205.8,157.1,205.8C157.1,205.8,157.1,205.8,157.1,205.8z"/>
<path class="st5" d="M192.1,150.9c-0.8,1.1-1.9,0.9-3,0.9c0.9-4.5-3-3.9-6.8-4.5C190.4,144.5,191.9,145.3,192.1,150.9z"/>
<path class="st6" d="M335.1,7.8c0,1.4-0.1,2.7-0.1,4.1c-1.3,0-2.6-0.1-3.9-0.1c0-1.4,0-2.7-0.1-4.1c0.4-1.1-0.5-3.2,1.1-3.2
	C333.6,4.6,334.9,6.1,335.1,7.8z"/>
<path class="st5" d="M185.4,232c-0.7-0.1-1.5-0.1-2.2-0.2c-0.2-6.7,5.2-2.9,7.9-4.1l0.2,0.3C190,230.3,188.1,231.8,185.4,232z"/>
<path class="st3" d="M347.1,28.1c-0.2,1.5,0.5,3.6-2.1,3.6c-1.9,0-1.8-1.6-1.8-2.9c0-1.7,0.1-3.6,2.3-3.7
	C347.4,25.1,346.9,26.9,347.1,28.1z"/>
<path class="st5" d="M237.2,330.7c2.6,0.3,3.5,3.1,5.9,3.8c0,0.4,0.1,0.8,0.1,1.2c-0.6,0-1.3,0-1.9,0.1
	C237,336.5,234.6,335.6,237.2,330.7z"/>
<path class="st5" d="M195.8,175.2c3.5-1.6,6.8-2.3,9.4,2.6C201.5,176.8,198.6,176,195.8,175.2z"/>
<path class="st3" d="M429,89.7c0.4-1.6-0.7-4.5,3.1-2.6c1,0.5,3-1.7,4.9-1.4c0.1,0.1,0.2,0.3,0.4,0.4c-2.1,2.4-4.6,4.1-8,4
	C429.2,90,429.1,89.8,429,89.7z"/>
<path class="st5" d="M237.3,113.9c-0.3,2.3-1.7,3.6-3.8,4.3c-0.1-0.5-0.4-1-0.2-1.4c0.5-1.8-2.4-3.1-1.1-4.3
	C234.1,110.5,235.3,114,237.3,113.9z"/>
<path class="st5" d="M179.6,226.1c-2.2,2.1-2.8,4.3-5.4,3.4c-0.9-0.3-1.2-1.4-0.9-2.1C174.4,224.8,176.5,226,179.6,226.1z"/>
<path class="st3" d="M475,227.9c1.3-0.1,2.1-0.7,2.1-2c0.7,0,1.3,0,2,0c-0.8,2.5,1.8,4,1.9,6.2C477.9,232.2,476,230.6,475,227.9z"/>
<path class="st5" d="M253.1,83.9c0-0.4,0-0.8,0.1-1.2c1,0.1,2,0.1,2.9,0.1c1,0.7,2,1.3,3,2C257.2,86.9,255.3,86.6,253.1,83.9z"/>
<path class="st3" d="M349.1,55.8c0.2-1.6-0.7-4,2.3-3.8c1.9,0.1,1.8,1.8,1.6,3C352.4,58.1,350.4,55.4,349.1,55.8L349.1,55.8z"/>
<path class="st5" d="M233.1,81.8c1.6,0.2,3.9-0.7,3.9,2.3c0,0.9-0.6,1.5-1.6,1.6C232.5,85.8,233.3,83.4,233.1,81.8L233.1,81.8z"/>
<path class="st3" d="M305.1,51.8c0.2-1.6-0.7-3.9,2.3-3.8c0.9,0,1.5,0.6,1.5,1.5C309,52.5,306.7,51.6,305.1,51.8L305.1,51.8z"/>
<path class="st3" d="M266.2,87.9c-1,2.2-3.1,3-5.1,3.9c0-1.3,0-2.6,0.1-3.9l0,0C262.8,87.9,264.5,87.9,266.2,87.9z"/>
<path class="st5" d="M189.2,123.8c1.5,0.3,3.6-0.6,3.8,2.1C190.4,127.5,188.6,127.8,189.2,123.8z"/>
<path class="st5" d="M201.1,207.8c0.3-1.2-0.7-2.8,1-3.4c0.9-0.3,1.3,0.9,1.5,1.6C204.1,208.2,202.3,207.6,201.1,207.8
	C201.1,207.8,201.1,207.8,201.1,207.8z"/>
<path class="st5" d="M441.1,251.8c0.4-2.6,2.4-1.8,4-2C444.8,252.5,442.6,251.6,441.1,251.8z"/>
<path class="st5" d="M204.6,102.8c-0.1,0.9-0.8,0.9-1.4,0.9s-1.4-0.1-1.4-0.9c0-0.9,0.8-0.9,1.4-0.9
	C203.8,101.9,204.5,101.9,204.6,102.8z"/>
<path class="st5" d="M240.9,92.1c-1.7,0-3.6,0.3-4.1-2.1C238.5,90.1,240.9,88.8,240.9,92.1z"/>
<path class="st5" d="M449.1,245.8c0-1.4,0-2.9,1.9-3.1C451.1,244.2,451.1,245.7,449.1,245.8z"/>
<path class="st3" d="M412.7,91.1c-0.3,0.1-0.6,0.4-0.8,0.3c-0.2-0.1-0.2-0.5-0.3-0.8c0.3-0.1,0.6-0.4,0.8-0.3
	C412.6,90.4,412.6,90.8,412.7,91.1z"/>
<path class="st5" d="M254.7,90.6c-0.1,0.3-0.2,0.6-0.4,0.8c-0.3-0.1-0.7-0.2-0.8-0.4c-0.1-0.2,0.2-0.5,0.3-0.8
	C254.1,90.3,254.4,90.4,254.7,90.6z"/>
<path class="st5" d="M233.1,81.8c-0.7-0.1-1.6-0.1-1.5-1.2c0-0.1,0.2-0.3,0.3-0.3C233,80.3,233,81.1,233.1,81.8L233.1,81.8z"/>
<path class="st5" d="M447.1,247.8c0.1-1.3,0.8-1.9,2-1.9C449,247.1,448.4,247.8,447.1,247.8z"/>
<path class="st5" d="M445,249.8c0-1.3,0.7-2,2-2C447,249.1,446.4,249.8,445,249.8z"/>
<path class="st3" d="M257.1,93.8c0,1.3-0.7,2-2,2C255.2,94.5,255.8,93.8,257.1,93.8z"/>
<path class="st3" d="M259.2,91.9c-0.1,1.3-0.8,1.9-2.1,1.9C257.2,92.5,257.9,91.8,259.2,91.9z"/>
<path class="st5" d="M261.1,87.8c-0.1-0.1-0.3-0.2-0.4-0.2C260.9,87.7,261,87.8,261.1,87.8L261.1,87.8z"/>
<path class="st6" d="M304.9,62.7c0.1,0.4,0.1,0.8,0.2,1.2c-0.4-0.1-0.9-0.2-1.3-0.3C304.2,63.2,304.6,63,304.9,62.7z"/>
<path class="st6" d="M230.8,123.7c0,0.7,0,1.4,0.1,2c-1.4,4.6-6.2,7.5-6.5,12.7c0,0.2-2,0.4-3,0.5
	C223.4,133.3,224.4,126.8,230.8,123.7z"/>
<path class="st4" d="M437.3,249.9c-0.1,0.6-0.1,1.3-0.2,1.9c-2.7,1.3-4.4,4.5-8,3.9C431,252.6,432.8,249.3,437.3,249.9z"/>
<path class="st4" d="M401.1,93.8c-0.2,1.6-1.1,2.2-2.6,1.8c-0.3-0.1-0.8-0.8-0.7-0.9C398.5,93.2,399.9,94.1,401.1,93.8
	C401.1,93.8,401.1,93.8,401.1,93.8z"/>
<path class="st8" d="M482,251.4c2-3.1,5.1-4.7,9.5-6.8c-2.9,4.1-4.6,7.4-8.1,9.1C483,252.9,482.5,252.2,482,251.4z"/>
<path class="st4" d="M185.4,232c2.8-0.2,4.7-1.6,5.9-4.1c0.3,0,0.7,0,1-0.1c2.7-0.9,5.8-5.1,7.5-3.2c2.3,2.6,2.5,7.2,3.4,11
	c0.5,2.2-0.7,2.7-2.9,2.5c-4.3-0.4-8.6-0.2-12.9-0.3c-1.1-1.4-3.2-0.6-4.4-1.6C182.5,233.8,185.5,233.9,185.4,232z"/>
<path class="st9" d="M480.9,269.8c1.9,0.2,3.4-0.4,4.9-1.7c3.8-3.2,6-8.5,12.1-8.7c1.3,0,1.7-2.6,3-3.8c5.9-5.5,13.2-8.9,19.5-13.9
	c4.8-3.8,10.4-6.7,15.8-9.6c3.4-1.8,6.1-5,10.7-4.5c2.2,0.3,2.4-2.9,4.5-4c7.3-4.1,15.6-5.3,23.1-9c3.8-1.9,9.7-2.1,14.7-2.9
	c8.9-1.6,17.9-2.9,26.6-1.5c10.2,1.7,21.3,0.4,30.8,6.4c-3.8,3.9-8.8,2.9-13.2,3.1c-2.8,0.2-5.3,0.6-7.3,2.4c-1.8,1.6-3.8,1.8-6,1.7
	c-5-0.1-9.3,2.1-13.7,3.9c-5.3,2.1-10.4,5.1-16.3,5.1c-0.1-0.1-0.3-0.1-0.4-0.2c0.1,0.1,0.3,0.1,0.4,0.2c-0.7,0.9-1.2,2.4-2,2.7
	c-6,1.8-10.6,6-15.8,9.1c-3.6,2.1-7.5,4.4-11.2,6.6c-5.9,3.6-11,8.6-16.8,12.4c-4.7,3-8.1,7-11.4,11.3c-4.5,5.9-11.6,9.2-16.7,14.7
	c-6.9,7.4-15.1,13.2-22.4,20.2c-4.5,4.4-10,8-14.6,12.4c-2.9,2.8-5.9,5.3-9,7.6c-8.5,6.1-16.9,12.4-25.9,17.5
	c-9.3,5.2-19.1,10.5-29.3,13.2c-8.7,2.3-16.9,6-25.9,7.9c-8.5,1.7-17.2-0.2-25.7,3c-4.2,1.6-9.8,1.3-15-0.9
	c-4.5-1.9-9.9-0.6-14.8-0.6c-6.5,0-12.6-1.5-18.4-4.1c-3-1.4-5.8-2.3-9-1.9c-4.3,0.6-6.9-2.8-10.4-3.9c-11.4-3.5-22-8.7-32.5-14.1
	c-1.9-1-4-1.6-3.4-4.5c0.6-3.1,2.8-1.2,4.3-1.5c7.2-1.5,14,1.3,21,2c6.5,0.2,12.9,0.4,19.5,1.7c7.2,1.4,14.9,0.3,22.4,0.3
	c-0.1-1.9-2.6,0-2.7-2c1.7,0,3.4-0.2,5,0c11.7,1.5,22.9-2.2,34-4.4c11.1-2.2,21.9-6,32.5-10.1c4.2-1.7,9.9-2.1,12.2-7.4
	c18.4-9.2,36.1-19.5,52.4-32.1C467.6,282.1,473.9,275.5,480.9,269.8z"/>
<path class="st7" d="M408,319.9c-2.3,5.3-8,5.8-12.2,7.4c-10.5,4.1-21.4,7.9-32.5,10.1c-11.2,2.2-22.3,5.9-34,4.4
	c-1.6-0.2-3.3,0-5,0c0.1,1.9,2.5,0.1,2.7,2c-7.5,0-15.2,1.1-22.4-0.3c-6.5-1.2-13-1.5-19.5-1.7c0-0.7,0-1.4,0.1-2.1
	c15.4,1.4,30.9,1.9,46.4,0.9c10.2-0.7,20.3-3.1,30.3-5.2c14.3-3,28-8.1,41.4-13.8C404.8,320.8,406.4,320.4,408,319.9z"/>
<path class="st10" d="M93.2,291.8c-1.5-0.2-3.2,0.6-5.2-1.6C90.4,290.1,92.3,288.6,93.2,291.8L93.2,291.8z"/>
<path class="st4" d="M429.4,90.1c3.4,0.1,5.9-1.6,8-4c2.5,0.3,4.3-2.2,6.9-1.7c0.7,2.2-1.8,3.4-1.3,5.4c-0.2,0.1-0.2,0.3-0.2,0.5
	c-3,2.7-3.9,6.7-5.6,10.1c-2,3.9-3.3,4.3-6.5,1.2c-0.5-0.4-0.8-1-1.3-1.5C424.6,94.7,424.6,94.7,429.4,90.1z"/>
<path class="st6" d="M301.1,51.9c0,1,0,2.1,0,3.1c-1.7-1-4.3-1.2-3.5-4.2C298.7,51.1,299.9,51.5,301.1,51.9z"/>
<path class="st10" d="M442.7,90.3c-0.1-0.2,0-0.4,0.2-0.5c1.6,0.2,2.4,1,2,2.6c-0.1,0.3-0.7,0.9-0.9,0.8
	C442.6,92.7,443.3,91.2,442.7,90.3z"/>
<path class="st6" d="M297.2,49.7c-0.8-0.4-1-1.1-1-1.9C297,48.2,297.2,48.9,297.2,49.7z"/>
<path class="st4" d="M194.9,125.9c0.2-1.2,0.3-2.6-0.8-3.2c-6.7-3.6-10.9-9.9-16.4-14.8c-1.3-1.1-2.8-2-5.2-3.7
	c6.3-1.3,10.9,1.4,15.6,2.7c5.7,1.6,11.2,3.6,17,4.7c4.3,0.2,8.2,2.4,12.5,3c3.5,0.5,4.5,4.3,2.7,6.5c-3.8,4.4-6.1,9.6-9.2,14.4
	c-1.6,2.5-2.8,2.8-4.9,0.6C202.6,132.6,198.6,129.3,194.9,125.9z"/>
<path class="st4" d="M331.1,11.9c1.3,0,2.6,0.1,3.9,0.1c2.2,12.9,5.7,25.6,8.8,38.3c2.3,9.6,2.4,9.6-7.5,9.6c-3.7,0-7.3-0.2-11,0.1
	c-4.4,0.3-4.7-2.2-3.9-5.4c1.5-6.3,3.2-12.5,4.6-18.8C327.8,27.8,329.4,19.8,331.1,11.9z"/>
<path class="st4" d="M365.1,54.9c3.1-0.9,3.7-3.7,5-6.1c0.8-1.4,1.4-3.4,3.4-4c1.7,2.5-0.2,5.6,1.6,8c0.2,3,0.5,5.9,0.6,8.9
	c0.1,1.6,0.5,4-1.8,3.9c-4,0-7.9-1.4-11.7-3c-1.5-0.6-0.4-2.1,0.1-3C363.2,57.9,364.2,56.4,365.1,54.9z"/>
<path class="st4" d="M475,227.9c1.1,2.8,3,4.3,6,4.2c0.3,1.1,1.2,1.6,2.2,1.9c1,0.4,1.8,0.9,1.5,2.2c-0.3,1.3-1.4,1.3-2.4,1.3
	c-5.6,0.2-11.3,0.3-16.9,0.7c-2.1,0.1-2.1-1-2.1-2.4c-0.2-3.8,2.2-6.9,2.5-10.6c0.1-1.5,1.9-1.2,3.2-0.4
	C470.9,225.9,472.9,226.8,475,227.9z"/>
<path class="st10" d="M237.2,101.9c2.7-0.1,5.3,0.2,7.3-2.7c1.2-1.8,3.6-2.7,4.7,0.7c-0.7,0.7-1.4,1.3-2,1.9c-1.3,0.1-2,0.7-2,2l0,0
	c-1.3,0-2,0.7-2,2l0,0C240.6,105.5,236.5,107.3,237.2,101.9z"/>
<path class="st6" d="M228.9,100.2c2.1,0.7,3.9,2.3,6.3,1.7c-0.5,2.6-2.5,2.1-4.2,1.9C228.8,103.7,229.1,101.8,228.9,100.2z"/>
<path class="st6" d="M227.1,96c2.5,0.4,1.8,2.4,1.8,3.9C226.5,99.4,227.1,97.6,227.1,96z"/>
<path class="st6" d="M237.1,99.9c0,0.7,0,1.3,0,2c-0.6,0-1.2,0.1-1.9,0.1C235.1,100.6,235.9,100,237.1,99.9z"/>
<path class="st11" d="M191.3,161.8c-1.3,0-2-0.7-2.2-2c-0.2-2.6-2.3-1.8-3.8-2.1l-0.1-0.1c1.1-3,3.4-3,6-2.3
	c2.1,0.5,4.5,1.8,5.9-1.3c5.3,0,5.7,0.6,3.8,5.8c-3.3,0.5-0.4,4.4-3,5.5C195.9,163.8,194.4,161.2,191.3,161.8z"/>
<path class="st4" d="M191.3,161.8c3.1-0.6,4.6,2,6.6,3.5c2.6-1.1-0.3-5,3-5.5c0,1,0.2,2,0.1,2.9c-0.4,4.9-1.6,5.4-5.7,2.9
	c-1.2-0.8-2-2.3-3.8-2.1c0,0-0.1-0.1-0.1-0.1C191.4,162.9,191.3,162.4,191.3,161.8z"/>
<path class="st4" d="M197.1,154c-1.4,3.1-3.8,1.8-5.9,1.3c-2.7-0.6-4.9-0.7-6,2.3c-1.4,0-2.8-0.4-2.6-2.1c0.2-1.3,1.5-1.6,2.7-1.6
	C189.3,154,193.2,154,197.1,154z"/>
<path class="st4" d="M185.3,157.7c1.5,0.2,3.6-0.5,3.8,2.1C187.7,159.5,185.6,160.2,185.3,157.7z"/>
<path class="st6" d="M303,58c2.5,0,2.1,1.6,1.9,3.2C303.8,60.4,302.9,59.5,303,58z"/>
<path class="st6" d="M301.2,55.8c1.3,0.1,2,0.8,1.8,2.2C301.5,58,301.1,57.1,301.2,55.8z"/>
<path class="st6" d="M304.9,61.9c0.2,0.1,0.4,0.3,0.6,0.4c-0.2,0.1-0.4,0.3-0.6,0.4C304.8,62.4,304.8,62.2,304.9,61.9z"/>
<path class="st5" d="M243.1,105.8c0-1.3,0.7-2,2-2C245.1,105.1,244.4,105.8,243.1,105.8z"/>
<path class="st5" d="M245.2,103.9c0-1.3,0.7-2,2-2C247.2,103.2,246.4,103.8,245.2,103.9z"/>
<path class="st2" d="M590.1,232.8c-0.1-0.1-0.3-0.1-0.4-0.2C589.8,232.6,589.9,232.7,590.1,232.8L590.1,232.8z"/>
</svg>
